<svg width="15" height="14" viewBox="0 0 15 14" fill="none" xmlns="http://www.w3.org/2000/svg">
<path d="M10.7184 7.32402C10.7129 6.3916 11.1354 5.68887 11.9885 5.1707C11.5113 4.48711 10.7895 4.11113 9.83789 4.03867C8.93691 3.96758 7.95117 4.56367 7.59023 4.56367C7.20879 4.56367 6.33652 4.06328 5.6502 4.06328C4.23379 4.08516 2.72852 5.19258 2.72852 7.4457C2.72852 8.11152 2.8502 8.79922 3.09355 9.50742C3.41895 10.4398 4.59199 12.7244 5.81562 12.6875C6.45547 12.6725 6.90801 12.2336 7.74062 12.2336C8.54863 12.2336 8.96699 12.6875 9.68066 12.6875C10.9152 12.6697 11.9762 10.593 12.2852 9.65781C10.6295 8.87715 10.7184 7.37188 10.7184 7.32402V7.32402ZM9.28145 3.1541C9.97461 2.33105 9.91172 1.58184 9.89121 1.3125C9.27871 1.34805 8.57051 1.72949 8.16719 2.19844C7.72285 2.70156 7.46172 3.32363 7.51777 4.025C8.17949 4.07559 8.78379 3.73516 9.28145 3.1541V3.1541Z" fill="black" fill-opacity="0.85"/>
</svg>
