<svg width="14" height="14" viewBox="0 0 14 14" fill="none" xmlns="http://www.w3.org/2000/svg">
<path d="M3.69287 10.1407C3.69287 10.4607 3.954 10.7218 4.27529 10.7218H4.94111V12.3679C4.94111 12.7849 5.27607 13.1253 5.6876 13.1253C6.10049 13.1253 6.43408 12.7862 6.43408 12.3679V10.7204H7.59619V12.3665C7.59619 12.7835 7.93115 13.1239 8.34268 13.1239C8.75557 13.1239 9.08916 12.7849 9.08916 12.3665V10.7204H9.75498C10.0763 10.7204 10.3374 10.4593 10.3374 10.1394V4.73624H3.69287V10.1407V10.1407ZM8.5751 1.93624L9.18896 1.04757C9.22451 0.995614 9.21631 0.925887 9.16846 0.891707C9.12061 0.858895 9.05225 0.875301 9.0167 0.927254L8.37959 1.85147C7.95986 1.68604 7.49228 1.59444 7.00146 1.59444C6.51064 1.59444 6.04307 1.68604 5.62334 1.85147L4.98623 0.928621C4.95068 0.876668 4.88232 0.858895 4.83447 0.893075C4.78662 0.925887 4.77842 0.994246 4.81396 1.04893L5.42783 1.93761C4.45166 2.39151 3.76807 3.25147 3.68057 4.25636H10.3251C10.2349 3.25011 9.5499 2.39014 8.5751 1.93624V1.93624ZM5.59873 3.33761C5.52599 3.33761 5.45489 3.31604 5.39441 3.27562C5.33393 3.23521 5.28679 3.17777 5.25895 3.11057C5.23112 3.04337 5.22383 2.96942 5.23802 2.89808C5.25221 2.82674 5.28724 2.76121 5.33868 2.70978C5.39011 2.65834 5.45564 2.62332 5.52698 2.60913C5.59832 2.59493 5.67227 2.60222 5.73947 2.63005C5.80667 2.65789 5.86411 2.70503 5.90452 2.76551C5.94493 2.82599 5.9665 2.89709 5.9665 2.96983C5.96625 3.06729 5.92742 3.16069 5.85851 3.22961C5.78959 3.29852 5.69619 3.33735 5.59873 3.33761V3.33761ZM8.44795 3.33761C8.37521 3.33761 8.3041 3.31604 8.24362 3.27562C8.18314 3.23521 8.13601 3.17777 8.10817 3.11057C8.08034 3.04337 8.07305 2.96942 8.08724 2.89808C8.10143 2.82674 8.13646 2.76121 8.18789 2.70978C8.23933 2.65834 8.30486 2.62332 8.3762 2.60913C8.44754 2.59493 8.52149 2.60222 8.58869 2.63005C8.65589 2.65789 8.71333 2.70503 8.75374 2.76551C8.79415 2.82599 8.81572 2.89709 8.81572 2.96983C8.81547 3.06729 8.77664 3.16069 8.70773 3.22961C8.63881 3.29852 8.54541 3.33735 8.44795 3.33761ZM11.5022 4.71436C11.0894 4.71436 10.7558 5.05343 10.7558 5.47179V8.43038C10.7558 8.84737 11.0907 9.1878 11.5022 9.1878C11.9151 9.1878 12.2487 8.84874 12.2487 8.43038V5.47042C12.2501 5.05206 11.9165 4.71436 11.5022 4.71436ZM2.49795 4.71436C2.08506 4.71436 1.75146 5.05343 1.75146 5.47179V8.43038C1.75146 8.84737 2.08643 9.1878 2.49795 9.1878C2.91084 9.1878 3.24443 8.84874 3.24443 8.43038V5.47042C3.24443 5.05206 2.90947 4.71436 2.49795 4.71436Z" fill="black" fill-opacity="0.85"/>
</svg>
