<svg width="14" height="14" viewBox="0 0 14 14" fill="none" xmlns="http://www.w3.org/2000/svg">
<g clip-path="url(#clip0_5101_9585)">
<rect width="14" height="14" fill="white" fill-opacity="0.01"/>
<path fill-rule="evenodd" clip-rule="evenodd" d="M11.6225 2.93754C11.938 3.24613 12.1903 3.61328 12.3653 4.01845C12.5467 4.44011 12.6394 4.88788 12.6381 5.3487C12.6381 5.78341 12.5493 6.2364 12.3731 6.69723C12.2269 7.08233 12.0141 7.4818 11.7439 7.88518C11.3157 8.52355 10.7269 9.18933 9.99589 9.86424C8.78313 10.983 7.58473 11.7545 7.53381 11.7872L7.22442 11.9856C7.08735 12.0731 6.91112 12.0731 6.77404 11.9856L6.46465 11.7872C6.41374 11.7558 5.21403 10.983 4.00258 9.86424C3.27153 9.18933 2.68277 8.52355 2.25458 7.88518C1.98436 7.4818 1.77287 7.08233 1.62536 6.69723C1.44912 6.2364 1.36035 5.78341 1.36035 5.3487C1.36035 4.88788 1.45304 4.44011 1.6345 4.01845C1.80901 3.61302 2.06137 3.24578 2.3773 2.93754C2.69452 2.62684 3.06396 2.38272 3.47387 2.21301C3.89814 2.03678 4.34722 1.94801 4.81065 1.94801C5.45424 1.94801 6.08216 2.12424 6.62783 2.45713C6.75838 2.53676 6.8824 2.62423 6.99989 2.71953C7.11738 2.62423 7.24139 2.53676 7.37194 2.45713C7.91762 2.12424 8.54554 1.94801 9.18912 1.94801C9.64787 1.94695 10.1023 2.03703 10.5259 2.21301C10.9345 2.38206 11.3067 2.62802 11.6225 2.93754ZM2.35249 5.3487C2.35249 7.97526 6.99989 10.953 6.99989 10.953C6.99989 10.953 6.99992 10.953 7 10.9529C6.97573 10.9373 2.3527 7.96835 2.3527 5.34869C2.3527 4.06913 3.37091 3.02269 4.6568 2.94479C3.37081 3.02259 2.35249 4.06908 2.35249 5.3487ZM9.03386 2.94487C8.14572 2.99909 7.38507 3.51519 6.99999 4.25061C7.00003 4.25067 7.00006 4.25074 7.0001 4.2508C7.38511 3.51533 8.14573 2.99916 9.03386 2.94487Z" fill="#2F54EB"/>
</g>
<defs>
<clipPath id="clip0_5101_9585">
<rect width="14" height="14" fill="white"/>
</clipPath>
</defs>
</svg>
